<?xml version="1.0" encoding="UTF-8"?>
<svg width="80px" height="59px" viewBox="0 0 80 59" version="1.1" xmlns="http://www.w3.org/2000/svg" xmlns:xlink="http://www.w3.org/1999/xlink">
    <title>Group 24</title>
    <defs>
        <polygon id="path-1" points="0.1692 0.309818182 8.885625 0.309818182 8.885625 15.9978182 0.1692 15.9978182"></polygon>
    </defs>
    <g id="Symbols" stroke="none" stroke-width="1" fill="none" fill-rule="evenodd">
        <g id="desktop-/-menu" transform="translate(0.000000, -17.000000)">
            <g id="Group-24" transform="translate(0.000000, 17.000000)">
                <path d="M15,13.0898592 L15,23 L11.8820054,23 L11.8820054,13.6189039 C11.8820054,11.438048 10.545033,9.97300115 8.41418692,9.97300115 C5.90050081,9.97300115 4.11873659,11.904959 4.11873659,14.7725556 L4.11873659,23 L1,23 L1,0.0933822019 L4.15026895,0 L4.15026895,9.97300115 C5.20011129,8.32118991 7.01377885,7.3245075 9.1772702,7.3245075 C12.6777339,7.3245075 15,9.62999415 15,13.0898592" id="Fill-1" fill="#151515"></path>
                <path d="M22.2329146,13.5178182 L30.5081658,13.5178182 L30.5081658,13.4556364 C30.5081658,11.1167273 28.9569095,9.61927273 26.6292714,9.61927273 C24.2692211,9.61927273 22.5886935,11.148 22.2329146,13.5178182 L22.2329146,13.5178182 Z M34,18.9141818 C33.0943467,21.3774545 30.3464824,23 27.1135678,23 C22.2653266,23 19,19.7247273 19,14.8592727 C19,10.1185455 22.0712312,7 26.6292714,7 C30.8639447,7 33.6766332,9.71272727 33.6766332,13.8923636 C33.6766332,14.6410909 33.611809,15.3581818 33.5149497,15.7323636 L22.2005025,15.7323636 C22.394598,18.54 24.3340452,20.38 27.1135678,20.38 C29.118593,20.38 30.928392,19.3814545 31.6067839,17.916 L34,18.9141818 Z" id="Fill-3" fill="#151515"></path>
                <polygon id="Fill-5" fill="#151515" points="38 0.0933822019 41 0 41 23 38 23"></polygon>
                <polygon id="Fill-7" fill="#151515" points="46 0.0933822019 49 0 49 23 46 23"></polygon>
                <path d="M56.2323232,13.5178182 L64.5079904,13.5178182 L64.5079904,13.4556364 C64.5079904,11.1167273 62.9566561,9.61927273 60.6289009,9.61927273 C58.2694859,9.61927273 56.5877431,11.148 56.2323232,13.5178182 L56.2323232,13.5178182 Z M68,18.9141818 C67.0943012,21.3774545 64.3462988,23 61.1139756,23 C56.26436,23 53,19.7247273 53,14.8592727 C53,10.1185455 56.0702548,7 60.6289009,7 C64.8634102,7 67.67624,9.71272727 67.67624,13.8923636 C67.67624,14.6410909 67.6114126,15.3581818 67.5149254,15.7323636 L56.1999095,15.7323636 C56.3940148,18.54 58.3343133,20.38 61.1139756,20.38 C63.1183477,20.38 64.9282376,19.3814545 65.6074175,17.916 L68,18.9141818 Z" id="Fill-9" fill="#151515"></path>
                <g id="Group-13" transform="translate(71.000000, 7.000000)">
                    <mask id="mask-2" fill="white">
                        <use xlink:href="#path-1"></use>
                    </mask>
                    <g id="Clip-12"></g>
                    <path d="M8.8857,0.372 L8.8857,3.33454545 C8.692575,3.27236364 8.2752,3.24109091 7.88895,3.24109091 C5.251575,3.24109091 3.3537,5.14363636 3.3537,8.20036364 L3.3537,15.9978182 L0.1692,15.9978182 L0.1692,0.558545455 L2.71095,0.465818182 L2.904075,3.42836364 L3.161325,3.42836364 C4.1262,1.58836364 5.86245,0.309818182 8.2107,0.309818182 C8.467575,0.309818182 8.724825,0.341090909 8.8857,0.372" id="Fill-11" fill="#1D1D1B" mask="url(#mask-2)"></path>
                </g>
                <path d="M4.11967442,41.5505775 C4.11967442,43.3905203 5.44107942,44.6476596 7.38982181,44.6476596 C9.34039745,44.6476596 10.6603359,43.3905203 10.6603359,41.5505775 L10.6603359,41.3664402 C10.6603359,39.5879957 9.34039745,38.3605329 7.38982181,38.3605329 C5.44107942,38.3605329 4.11967442,39.5879957 4.11967442,41.3664402 L4.11967442,41.5505775 Z M15,53.4801716 C15,56.7917826 12.0129061,59 7.57864633,59 C3.0186258,59 0,56.6691436 0,53.111897 L3.08132287,53.111897 C3.08132287,55.1359771 4.81190878,56.4853638 7.38982181,56.4853638 L7.73593899,56.4853638 C10.2522549,56.4853638 11.8871453,55.4123618 11.8871453,53.7869479 L11.8871453,53.3571751 C11.8871453,52.2530664 10.8491604,51.5175898 9.27733372,51.5175898 L5.22072303,51.5175898 C2.79826941,51.5175898 1.16374569,50.3208761 1.16374569,48.4809334 C1.16374569,47.2545432 1.91831048,46.2115752 3.04979101,45.8440157 L3.04979101,45.6291293 C1.82371489,44.6476596 1.13258048,43.206383 1.13258048,41.4583301 C1.13258048,38.1771107 3.77355723,36 7.70440713,36 L14.8742392,36 L14.8742392,38.3605329 L11.9498423,38.2071447 L11.9498423,38.391282 C12.9570287,39.066333 13.5850994,40.2315824 13.5850994,41.5813267 C13.5850994,44.8317969 11.100682,47.0092652 7.38982181,47.0092652 C6.41563394,47.0092652 5.5342084,46.855877 4.74884505,46.5794923 C4.24543521,46.9170177 4.05661069,47.3464331 4.05661069,47.8373467 C4.05661069,48.5424316 4.78037692,49.0333453 5.84916037,49.0333453 L9.43462638,49.0333453 C12.7678375,49.0333453 15,50.8117898 15,53.4801716 L15,53.4801716 Z" id="Fill-14" fill="#151515"></path>
                <path d="M27,35.0637879 L27,38.0851818 C26.8005937,38.0217648 26.3688694,37.9898709 25.970444,37.9898709 C23.2476768,37.9898709 21.2872999,39.929838 21.2872999,43.0476555 L21.2872999,51 L18,51 L18,35.2540389 L20.6228704,35.1590988 L20.8222767,38.1804928 L21.0878936,38.1804928 C22.0849251,36.3039427 23.878033,35 26.3022716,35 C26.5682757,35 26.8338926,35.0318939 27,35.0637879" id="Fill-16" fill="#151515"></path>
                <path d="M38.9453671,43.7950728 L38.9453671,43.6387128 L34.767964,43.7638008 C33.1148856,43.8263449 32.0553598,44.793232 32.0553598,45.9470239 L32.0553598,46.3524693 C32.0553598,47.5688053 33.1148856,48.3484239 34.7992227,48.3484239 C37.0742046,48.3484239 38.9453671,46.5397377 38.9453671,43.7950728 M42,40.5827822 L42,50.6880071 L39.5378292,50.6880071 L39.381899,47.9429786 L39.1638148,47.9429786 C38.22787,49.8145724 36.4199519,51 34.2376559,51 C31.057988,51 29,49.1287698 29,46.3524693 C29,43.7325288 31.183023,41.7991182 34.580775,41.6740301 L38.9453671,41.5493057 L38.9453671,40.6140542 C38.9453671,38.8050044 37.7288207,37.5886684 35.921266,37.5886684 C33.9879494,37.5886684 32.6790807,38.7737324 32.6790807,40.5827822 L29.7480289,40.5827822 L29.7480289,40.5515102 C29.7480289,37.2144951 32.2112901,35 35.921266,35 C39.5378292,35 42,37.2144951 42,40.5827822" id="Fill-18" fill="#151515"></path>
                <path d="M49.8016863,35.9013739 L60,35.9013739 L60,51 L56.9124338,51 L56.9124338,38.4597066 L49.8016863,38.4597066 L49.8016863,51 L46.7457558,51 L46.7457558,38.4597066 L44,38.4597066 L44,35.9013739 L46.7457558,35.9013739 L46.7457558,33.9414733 C46.7457558,30.3890864 49.1151565,28 52.701984,28 C53.1699734,28 53.8561396,28.0610572 54.2310402,28.1838857 L54.1997682,30.7565008 C53.8874116,30.6647365 53.4819663,30.6340293 53.076521,30.6340293 C51.0180223,30.6340293 49.8016863,31.9508655 49.8016863,33.9721804 L49.8016863,35.9013739 Z" id="Fill-20" fill="#151515"></path>
                <path d="M80,51 L76.075856,51 L69.2089728,43.0147376 L69.2089728,42.7372394 L74.9372786,35.8001438 L78.5131346,35.8001438 L72.8796488,42.6139468 L80,51 Z M65,28.1229331 L68.1010183,28 L68.1010183,51 L65,51 L65,28.1229331 Z" id="Fill-22" fill="#151515"></path>
            </g>
        </g>
    </g>
</svg>